# xmcd
#
# Track frame offsets:
#  187
#  13877
#  30377
#  47930
#  62147
#  81530
#  98462
#  115100
#  129445
#  145940
#
# Disc length: 2160 seconds
#
# Revision: 2
# Processed by: cddbd v1.5.1PL2 Copyright (c) Steve Scherf et al.
# Submitted via: Collectorz.com_Music_Collector 6.9
#
DISCID=83086e0a
DTITLE=Matraca Berg - Lying To The Moon
DYEAR=1990
DGENRE=Country
TTITLE0=The Things You Left Undone
TTITLE1=I Got It Bad
TTITLE2=Lying To The Moon
TTITLE3=I Must Have Been Crazy
TTITLE4=You Are The Storm
TTITLE5=Calico Plains
TTITLE6=Appalachian Rain
TTITLE7=Baby, Walk On
TTITLE8=Alice In The Looking Glass
TTITLE9=Dancin' On The Wire
EXTD=
EXTT0=
EXTT1=
EXTT2=
EXTT3=
EXTT4=
EXTT5=
EXTT6=
EXTT7=
EXTT8=
EXTT9=
PLAYORDER=
